<?xml version="1.0" encoding="UTF-8" standalone="no"?>
<!-- Created with Inkscape (http://www.inkscape.org/) -->

<svg
   xmlns:dc="http://purl.org/dc/elements/1.1/"
   xmlns:cc="http://creativecommons.org/ns#"
   xmlns:rdf="http://www.w3.org/1999/02/22-rdf-syntax-ns#"
   xmlns:svg="http://www.w3.org/2000/svg"
   xmlns="http://www.w3.org/2000/svg"
   xmlns:sodipodi="http://sodipodi.sourceforge.net/DTD/sodipodi-0.dtd"
   xmlns:inkscape="http://www.inkscape.org/namespaces/inkscape"
   width="49.296711mm"
   height="31.558287mm"
   viewBox="0 0 49.296711 31.558287"
   version="1.1"
   id="svg8"
   inkscape:version="0.92.4 (5da689c313, 2019-01-14)"
   sodipodi:docname="smm-icon.svg">
  <defs
     id="defs2" />
  <sodipodi:namedview
     id="base"
     pagecolor="#ffffff"
     bordercolor="#666666"
     borderopacity="1.0"
     inkscape:pageopacity="0.0"
     inkscape:pageshadow="2"
     inkscape:zoom="3.959798"
     inkscape:cx="72.008882"
     inkscape:cy="127.6849"
     inkscape:document-units="mm"
     inkscape:current-layer="layer1"
     showgrid="false"
     fit-margin-top="0"
     fit-margin-left="0"
     fit-margin-right="0"
     fit-margin-bottom="0"
     inkscape:window-width="2560"
     inkscape:window-height="1377"
     inkscape:window-x="-8"
     inkscape:window-y="-8"
     inkscape:window-maximized="1" />
  <metadata
     id="metadata5">
    <rdf:RDF>
      <cc:Work
         rdf:about="">
        <dc:format>image/svg+xml</dc:format>
        <dc:type
           rdf:resource="http://purl.org/dc/dcmitype/StillImage" />
        <dc:title></dc:title>
      </cc:Work>
    </rdf:RDF>
  </metadata>
  <g
     inkscape:label="Layer 1"
     inkscape:groupmode="layer"
     id="layer1"
     transform="translate(-64.677005,-132.52267)">
    <path
       style="fill:#1387ff;stroke-width:0.10062397;fill-opacity:1"
       d="m 84.975785,163.67322 c 4.396882,-1.24111 9.008727,-3.13159 12.8183,-5.25445 2.748795,-1.53177 6.564825,-3.97064 8.315825,-5.31476 4.17146,-3.20216 6.91651,-6.77775 7.69915,-10.02865 0.24186,-1.00462 0.21422,-2.43171 -0.0628,-3.24384 -2.18159,-6.3952 -17.245952,-9.24927 -31.06918,-5.88634 -4.327921,1.0529 -8.871753,2.86657 -11.850204,4.72998 -4.238949,2.65203 -6.709322,6.11375 -6.041605,8.46604 0.536136,1.88874 2.179708,2.89785 5.488174,3.36958 1.11298,0.15869 5.394642,0.15679 7.144302,-0.004 5.46123,-0.49928 9.815019,-1.49821 14.389224,-3.30142 5.768119,-2.27386 9.051999,-4.77434 9.233099,-7.03048 0.0992,-1.23648 -0.60743,-2.12685 -2.296283,-2.89312 -1.574679,-0.71448 -3.040398,-0.97892 -5.797772,-1.04605 -3.898975,-0.0949 -6.716533,0.37948 -11.104389,1.86963 -4.163824,1.41409 -6.469222,2.7107 -7.095435,3.99063 -0.431335,0.88162 -0.219657,1.50915 0.661552,1.96119 0.652756,0.33484 1.511384,0.43375 3.247064,0.37406 1.791166,-0.0615 3.108803,-0.26941 5.353813,-0.84438 3.636974,-0.93145 5.713344,-1.97601 6.137925,-3.08776 0.150128,-0.39309 0.151673,-0.47218 0.01557,-0.798 -0.103874,-0.24852 -0.287266,-0.43406 -0.586369,-0.59308 -0.382501,-0.20337 -0.575567,-0.23114 -1.592448,-0.2291 -1.305632,0.003 -2.295117,0.18292 -3.924335,0.71508 -1.341487,0.43818 -2.448989,0.9838 -2.769111,1.36424 -0.290832,0.34563 -0.296543,0.37993 -0.106452,0.6393 0.226267,0.30874 1.75071,0.25395 2.859828,-0.1028 0.461769,-0.14852 0.867976,-0.24163 0.902703,-0.20689 0.09829,0.0983 -0.171734,0.23613 -0.937276,0.47849 -0.970257,0.30717 -2.834771,0.32846 -3.158604,0.036 -0.719115,-0.64932 0.433899,-1.78902 2.615294,-2.58515 4.183636,-1.52683 7.637301,-1.16606 7.637301,0.79778 0,1.01485 -0.85703,1.97873 -2.513132,2.82647 -3.147134,1.61099 -9.433282,2.96396 -12.235501,2.63347 -1.689325,-0.19922 -2.56558,-0.63921 -3.040461,-1.52663 -0.307699,-0.57503 -0.280549,-1.5189 0.06406,-2.22715 0.984963,-2.02427 5.272189,-4.19694 11.265581,-5.70913 3.341911,-0.84321 6.044761,-1.1529 9.466455,-1.0847 3.394621,0.0676 5.106199,0.39194 7.005082,1.32718 1.19125,0.5867 1.86264,1.18584 2.28087,2.03538 0.28148,0.57175 0.3331,0.79598 0.36824,1.59964 0.0756,1.72791 -0.5043,2.97607 -2.14598,4.61922 -2.365114,2.36722 -6.405583,4.61807 -12.557045,6.99524 l -1.488408,0.57519 -0.02091,0.89426 c -0.02638,1.12784 -0.266134,1.65346 -1.305869,2.86344 -1.626043,1.89233 -2.450523,3.71781 -2.783735,6.16346 -0.129198,0.94825 -0.140358,2.08067 -0.02056,2.08067 0.04766,0 0.738231,-0.1839 1.534507,-0.40867 z"
       id="path110"
       inkscape:connector-curvature="0" />
  </g>
</svg>
